<?xml version="1.0" encoding="iso-8859-1"?><!-- Generator: Adobe Illustrator 19.2.0, SVG Export Plug-In . SVG Version: 6.00 Build 0)  --><svg xmlns="http://www.w3.org/2000/svg" xmlns:xlink="http://www.w3.org/1999/xlink" viewBox="0 0 48 48" width="48px" height="48px"><path style="fill:#ED1B24;" d="M24,2L8,5v13c0,0-0.3,18,16,28V2z"/><path style="fill:#ED1B24;" d="M24,2l16,3v13c0,0,0.3,18-16,28V2z"/><g><g><g><polygon style="fill:#009A4E;" points="40,5 40,7 24,4 24,2 "/></g><g><path style="fill:#009A4E;" d="M40,18L40,18L40,18z"/></g></g></g><path style="fill:#FEF200;" d="M24,44.8C8.9,35.2,9,18.2,9,18v-5.3c2.5-1,7.8-2.7,15-2.7s12.6,1.8,15,2.7V18C39,18.2,39,35.2,24,44.8z"/><path style="fill:#37474F;" d="M24,11c6.5,0,11.6,1.5,14,2.4V18c0,0.2,0.1,16.2-14,25.6C10,34.3,10,18.7,10,18v-4.6C12.6,12.5,17.5,11,24,11 M24,9c-9.2,0-15.4,2.8-16,3.1l0,0V18c0,0-0.3,18,16,28c16.3-10,16-28,16-28v-5.9l0,0C39.4,11.8,33.1,9,24,9L24,9z"/><g><g><g><polygon style="fill:#009A4E;" points="8,5 8,7 24,4 24,2 "/></g><g><path style="fill:#009A4E;" d="M8,18L8,18L8,18z"/></g></g></g><g><g><g><polygon style="fill:#FFFFFF;" points="8,7 8,9 24,6 24,4 "/></g><g><path style="fill:#FFFFFF;" d="M8,19.9C8,19.9,8,20,8,19.9L8,19.9z"/></g></g></g><g><g><g><polygon style="fill:#FFFFFF;" points="40,7 40,9 24,6 24,4 "/></g><g><path style="fill:#FFFFFF;" d="M40,19.9C40,19.9,40,20,40,19.9L40,19.9z"/></g></g></g><path style="fill:#37474F;" d="M31.2,25c-0.1-0.9,0.6-2.4,0.6-2.4s-1,0.6-1.1,1.4c-0.4-0.8,0.3-2,0.3-2c-0.4,0.2-0.9,0.6-0.9,2c0,3.6-0.1,3.4-0.4,4c-0.1,0.1-0.4,0.1-0.3-0.2c-0.1-0.4,0.1-1.3-2.3-2.7c-1.1-0.7-1.7-1.8-1.5-2.3c0.3,0.3,1,0.3,1.4,0.3c-0.3-0.2-1-0.7-1.2-1c0.3,0.2,1.6,0.5,2,0.3c-0.7-0.3-1.6-1-1.8-1.4c0.2,0.2,1.3,0.4,1.8,0.2c-0.5-0.2-1.3-0.6-1.5-1.2c0.4,0.1,0.7,0.2,1.7,0c-0.8-0.3-1.4-0.9-1.7-1.3c0.3,0,1.3,0.1,1.7,0.4c-0.2-0.6-1.1-1.1-1.8-1.6c0.2,0,1,0.1,1.4,0c-0.4-0.4-1.3-0.8-1.4-1c0.3,0,0.7-0.2,0.9-0.4c-1.3,0-1.5-1-2-1c-0.2-0.1-0.5-0.8-0.6-1c-0.2,0.2-0.4,0.5-0.4,1c-1.2,0-1.3,0.7-1.6,0.9c-1.5,0.6-1.7,0.2-2.1,0.6c-0.2,0.2-0.3,0.4-0.3,0.6c-0.1,0.5,0.1,0.9,0.7,0.9c0.2,0,0.6-0.3,0.9-0.3c0.5,0,1,0.5,1.8,0.5c0.3,0,0.6-0.2,1.1-1c-0.2,1.1-0.5,1.5-1.4,1.5c-0.1,0.7-0.8,3.2-1.5,3.8c-1.2,0.9-1.8,1.1-2.5,1.2c-0.1,0.1-0.8,0-0.9,0.3s-0.1,0.5,0,0.9c0,0.4,0.2,1.1,0.5,2.1c0,0.2,0.2,0.4,0.3,0.4c0.2,0.1,0.2,0.2,0.2,0.2c0.1,1,0.6,1.5,0.6,1.5s1-1.2,0.8-1.6c-0.1-0.2-0.7-0.4-0.7-0.4s0-0.3,0-0.4c-0.1-0.2-0.6-1.6-0.5-1.6c1.2,0,1.7,0,1.7,0s1.1,1.9,3.2,3.2c0.3-0.3,0.8-0.8,1.6-0.7c-2,0.2-2,2.4-1.5,3.3c0.7,1.4,0.7,1.7,0.6,2c-0.5,0.8-0.6,0.9-0.8,1.2c-0.1,0.2,0.1,0.3-0.1,0.4c-1,0.5-1.2,1.3-1.2,1.3s1.7,0.2,2-0.1c0.1-0.1,0.1-0.6,0.1-0.6s0.4,0.1,0.5,0.1c0.1-0.1,0.3-0.1,0.3-0.2c0-0.1,0.2-0.5,0.2-0.6c0.1-0.4,0.6-1.3,0.9-1.5c0-0.1-0.5-0.7-0.5-1c-0.1-1.3,1-1.2,2.4-2.9c0.1-0.2,0.3-0.1,0.4-0.1c2.6,0,2.3-2.1,2.7-4.4C31.2,25.5,31.2,25,31.2,25z"/><g><path style="fill:#37474F;" d="M21.6,33c0.1,0,0.3,0.1,0.4,0s0.4-0.3,0.5-0.3c0.3-0.2,1.4-0.4,1.8-0.4c0.1-0.2,0.2-0.4,0.1-0.6c0,0-1-1-0.5-2.9c-0.1-0.1-0.7-0.6-0.8-0.7C23,29.7,23.2,30.9,23,31c-0.9,0.3-1.4-0.1-1.8,0c-0.2,0.1-0.1,0.3-0.3,0.2c-1.1-0.2-1.7,0.4-1.7,0.4s1.2,1.4,1.6,1.3c0.1,0,0.5-0.4,0.5-0.4S21.4,32.9,21.6,33z"/></g><path style="fill:#37474F;" d="M17.7,22.9c0.2-0.2,0.3-0.8,0.3-0.8s0.3,0,0.4-0.1l0.3-0.3c0.3-0.3,0.9-0.8,0.9-0.8c0.2,0.2,0.8,1,1.1,1.4c0.2-0.1,0.7-0.5,1-1.1c-0.7-0.8-1.5-1.9-2-1.9c-0.2,0-2.2,1.8-2.2,1.9c-0.1,0.2-0.1,0.3-0.1,0.3c-1,0.3-1.3,0.9-1.3,0.9S17.4,23.2,17.7,22.9z"/></svg>