<?xml version="1.0" encoding="UTF-8" standalone="no"?>
<!-- Generator: Adobe Illustrator 19.2.0, SVG Export Plug-In . SVG Version: 6.00 Build 0)  -->

<svg
   viewBox="0 0 48 48"
   width="48"
   height="48"
   version="1.1"
   id="svg19"
   xmlns="http://www.w3.org/2000/svg"
   xmlns:svg="http://www.w3.org/2000/svg">
  <defs
     id="defs19" />
  <path
     style="fill: #37474f"
     d="m 17.7,22.9 c 0.2,-0.2 0.3,-0.8 0.3,-0.8 0,0 0.3,0 0.4,-0.1 l 0.3,-0.3 c 0.3,-0.3 0.9,-0.8 0.9,-0.8 0.2,0.2 0.8,1 1.1,1.4 0.2,-0.1 0.7,-0.5 1,-1.1 -0.7,-0.8 -1.5,-1.9 -2,-1.9 -0.2,0 -2.2,1.8 -2.2,1.9 -0.1,0.2 -0.1,0.3 -0.1,0.3 -1,0.3 -1.3,0.9 -1.3,0.9 0,0 1.3,0.8 1.6,0.5 z"
     id="path19" />
</svg>
