<?xml version="1.0" encoding="UTF-8" standalone="no"?>
<!-- Created with Inkscape (http://www.inkscape.org/) -->

<svg
   width="210mm"
   height="297mm"
   viewBox="0 0 210 297"
   version="1.1"
   id="svg1"
   xml:space="preserve"
   inkscape:version="1.4.2 (ebf0e940, 2025-05-08)"
   sodipodi:docname="cleanpslogo.svg"
   xmlns:inkscape="http://www.inkscape.org/namespaces/inkscape"
   xmlns:sodipodi="http://sodipodi.sourceforge.net/DTD/sodipodi-0.dtd"
   xmlns="http://www.w3.org/2000/svg"
   xmlns:svg="http://www.w3.org/2000/svg"><sodipodi:namedview
     id="namedview1"
     pagecolor="#ffffff"
     bordercolor="#000000"
     borderopacity="0.25"
     inkscape:showpageshadow="2"
     inkscape:pageopacity="0.0"
     inkscape:pagecheckerboard="0"
     inkscape:deskcolor="#d1d1d1"
     inkscape:document-units="mm"
     inkscape:zoom="3.9025903"
     inkscape:cx="272.38319"
     inkscape:cy="624.45704"
     inkscape:window-width="1336"
     inkscape:window-height="703"
     inkscape:window-x="145"
     inkscape:window-y="104"
     inkscape:window-maximized="0"
     inkscape:current-layer="layer1" /><defs
     id="defs1"><style
       id="style41121">

      .cls-2 {
        fill: #ffffff;
      }
    </style></defs><g
     inkscape:label="Capa 1"
     inkscape:groupmode="layer"
     id="layer1"><path
       style="fill:#1f1f1f;fill-opacity:1;fill-rule:evenodd;stroke-width:0.264583"
       class="cls-2"
       id="path-1"
       d="m 116.30914,167.43231 c -1.02333,1.29106 -3.53048,2.21205 -3.53048,2.21205 l -18.650772,6.69924 v -4.94054 l 13.725702,-4.89056 c 1.5576,-0.55807 1.79677,-1.34698 0.5307,-1.76107 -1.26369,-0.41529 -3.5519,-0.29629 -5.11069,0.26416 l -9.145712,3.2211 v -5.12735 l 0.52713,-0.17849 c 0,0 2.64281,-0.93527 6.358922,-1.34698 3.71611,-0.40934 8.26636,0.0559 11.83849,1.41005 4.02549,1.27202 4.47885,3.14733 3.45671,4.43839 z m -20.405892,-8.41272 v -12.63454 c 0,-1.48383 -0.27368,-2.84985 -1.66589,-3.23657 -1.06616,-0.34151 -1.72776,0.6485 -1.72776,2.13114 v 31.6399 l -8.53289,-2.70825 v -37.72514 c 3.62805,0.67349 8.91366,2.2656 11.75519,3.22349 7.226372,2.48097 9.676412,5.56881 9.676412,12.52625 0,6.78134 -4.18613,9.35156 -9.505062,6.78372 z m -27.58348,11.86705 c -4.13258,-1.16374 -4.82035,-3.58879 -2.93671,-4.98575 1.74085,-1.28987 4.70136,-2.26085 4.70136,-2.26085 l 12.23473,-4.35034 v 4.95958 l -8.8042,3.1509 c -1.55522,0.55807 -1.79439,1.34818 -0.5307,1.76227 1.26488,0.41409 3.55428,0.29629 5.11188,-0.26297 l 4.22302,-1.53262 v 4.43721 c -0.26773,0.0476 -0.5664,0.0952 -0.84246,0.1416 -4.22421,0.69015 -8.72329,0.40219 -13.15692,-1.05903 z"
       sodipodi:nodetypes="ccccccccccccccscsccccsccccccccccccc" /></g></svg>
